<svg xmlns="http://www.w3.org/2000/svg" xmlns:xlink="http://www.w3.org/1999/xlink" version="1.1" x="0px" y="0px" viewBox="21 21 100 125" enable-background="new 21 21 100 100" xml:space="preserve"><path fill="#000000" d="M70.460434,26.0133686h-0.0662384c-0.0258484,0-0.0258484,0-0.0323029,0c0,0,0,0-0.0129318,0h-0.04039  c-0.0064545,0-0.0064545,0-0.0064545,0s0,0-0.0129318,0c-0.1001511-0.0226154-0.1276245-0.0096931-0.2003174-0.0096931  c-11.5733261,0-22.8235512,4.6639023-31.1432915,12.8640957l-9.1436367-9.4408798  c-0.4426403-0.4410267-1.1146812-0.5799618-1.6639462-0.344101c-0.5751095,0.2520123-0.9596004,0.804512-0.9596004,1.4474735  v30.6537952c0,0.8578186,0.6881943,1.5621796,1.5282459,1.5621796h29.8541336c0.844902,0,1.5314751-0.6978874,1.5314751-1.5621796  c0-0.5735016-0.3037148-1.0823708-0.764122-1.3440819l-9.0353966-9.2987251  c5.3537102-5.2600136,12.3423004-8.1404228,20.0142174-8.1404228c15.6394958,0.1066246,28.3775864,13.1225739,28.3775864,29.2903328  c-0.1057205,13.6773987-9.6185608,25.1650391-22.408165,28.0922089c-3.7196045,0.8513107-6.4216232,4.0561218-6.4251709,7.8719025  l-0.0002594,0.2806931c-0.0048065,5.1710129,4.8043213,9.015419,9.8438263,7.856636  c19.8570786-4.5659332,34.9903564-22.6149216,35.1268463-44.3292236  C114.8248367,46.584938,94.9446945,26.2217693,70.460434,26.0133686z"/></svg>